<svg xmlns="http://www.w3.org/2000/svg" xmlns:xlink="http://www.w3.org/1999/xlink" version="1.1" width="256" height="256" viewBox="0 0 256 256" xml:space="preserve">

<defs>
</defs>
<g style="stroke: none; stroke-width: 0; stroke-dasharray: none; stroke-linecap: butt; stroke-linejoin: miter; stroke-miterlimit: 10; fill: none; fill-rule: nonzero; opacity: 1;" transform="translate(1.4065934065934016 1.4065934065934016) scale(2.81 2.81)" >
	<path d="M 63.712 88.015 H 26.282 c -1.868 0 -3.382 -1.514 -3.382 -3.382 V 5.374 c 0 -1.868 1.514 -3.382 3.382 -3.382 h 37.429 c 1.868 0 3.382 1.514 3.382 3.382 v 79.258 C 67.094 86.5 65.58 88.015 63.712 88.015 z" style="stroke: none; stroke-width: 1; stroke-dasharray: none; stroke-linecap: butt; stroke-linejoin: miter; stroke-miterlimit: 10; fill: rgb(255,255,255); fill-rule: nonzero; opacity: 1;" transform=" matrix(1 0 0 1 0 0) " stroke-linecap="round" />
	<path d="M 63.063 0 H 26.937 c -2.816 0 -5.098 2.283 -5.098 5.098 v 79.803 c 0 2.816 2.283 5.098 5.098 5.098 h 36.126 c 2.816 0 5.098 -2.283 5.098 -5.098 V 5.098 C 68.161 2.283 65.879 0 63.063 0 z M 65.161 84.902 c 0 1.157 -0.941 2.098 -2.098 2.098 H 26.937 c -1.157 0 -2.098 -0.941 -2.098 -2.098 V 5.098 C 24.839 3.941 25.78 3 26.937 3 h 5.321 c 0.379 2.345 2.052 4.126 4.044 4.126 h 17.396 c 1.992 0 3.664 -1.781 4.044 -4.126 h 5.321 c 1.157 0 2.098 0.941 2.098 2.098 V 84.902 z M 51.604 4 c 0 0.384 -0.312 0.696 -0.696 0.696 S 50.212 4.384 50.212 4 s 0.312 -0.696 0.696 -0.696 S 51.604 3.616 51.604 4 z M 48.362 4 c 0 0.276 -0.224 0.5 -0.5 0.5 h -9.466 c -0.276 0 -0.5 -0.224 -0.5 -0.5 s 0.224 -0.5 0.5 -0.5 h 9.466 C 48.139 3.5 48.362 3.724 48.362 4 z" style="stroke: none; stroke-width: 1; stroke-dasharray: none; stroke-linecap: butt; stroke-linejoin: miter; stroke-miterlimit: 10; fill: rgb(97,94,102); fill-rule: nonzero; opacity: 1;" transform=" matrix(1 0 0 1 0 0) " stroke-linecap="round" />
	<path d="M 60.194 29.213 H 29.806 c -0.429 0 -0.778 -0.348 -0.778 -0.778 V 14.194 c 0 -0.429 0.348 -0.778 0.778 -0.778 h 30.388 c 0.429 0 0.778 0.348 0.778 0.778 v 14.242 C 60.972 28.865 60.624 29.213 60.194 29.213 z" style="stroke: none; stroke-width: 1; stroke-dasharray: none; stroke-linecap: butt; stroke-linejoin: miter; stroke-miterlimit: 10; fill: rgb(255,210,0); fill-rule: nonzero; opacity: 1;" transform=" matrix(1 0 0 1 0 0) " stroke-linecap="round" />
	<path d="M 59.648 37.213 H 30.352 c -0.731 0 -1.323 -0.593 -1.323 -1.323 v 0 c 0 -0.731 0.593 -1.323 1.323 -1.323 h 29.297 c 0.731 0 1.323 0.593 1.323 1.323 v 0 C 60.972 36.621 60.379 37.213 59.648 37.213 z" style="stroke: none; stroke-width: 1; stroke-dasharray: none; stroke-linecap: butt; stroke-linejoin: miter; stroke-miterlimit: 10; fill: rgb(240,84,37); fill-rule: nonzero; opacity: 1;" transform=" matrix(1 0 0 1 0 0) " stroke-linecap="round" />
	<path d="M 59.771 45.213 h -23.88 c -0.663 0 -1.2 -0.537 -1.2 -1.2 v -0.246 c 0 -0.663 0.537 -1.2 1.2 -1.2 h 23.88 c 0.663 0 1.2 0.537 1.2 1.2 v 0.246 C 60.972 44.676 60.434 45.213 59.771 45.213 z" style="stroke: none; stroke-width: 1; stroke-dasharray: none; stroke-linecap: butt; stroke-linejoin: miter; stroke-miterlimit: 10; fill: rgb(180,183,191); fill-rule: nonzero; opacity: 1;" transform=" matrix(1 0 0 1 0 0) " stroke-linecap="round" />
	<path d="M 59.771 53.213 h -23.88 c -0.663 0 -1.2 -0.537 -1.2 -1.2 v -0.246 c 0 -0.663 0.537 -1.2 1.2 -1.2 h 23.88 c 0.663 0 1.2 0.537 1.2 1.2 v 0.246 C 60.972 52.676 60.434 53.213 59.771 53.213 z" style="stroke: none; stroke-width: 1; stroke-dasharray: none; stroke-linecap: butt; stroke-linejoin: miter; stroke-miterlimit: 10; fill: rgb(180,183,191); fill-rule: nonzero; opacity: 1;" transform=" matrix(1 0 0 1 0 0) " stroke-linecap="round" />
	<path d="M 30.785 45.213 h -0.424 c -0.731 0 -1.323 -0.593 -1.323 -1.323 v 0 c 0 -0.731 0.593 -1.323 1.323 -1.323 h 0.424 c 0.731 0 1.323 0.593 1.323 1.323 v 0 C 32.109 44.621 31.516 45.213 30.785 45.213 z" style="stroke: none; stroke-width: 1; stroke-dasharray: none; stroke-linecap: butt; stroke-linejoin: miter; stroke-miterlimit: 10; fill: rgb(152,192,229); fill-rule: nonzero; opacity: 1;" transform=" matrix(1 0 0 1 0 0) " stroke-linecap="round" />
	<path d="M 30.785 53.213 h -0.424 c -0.731 0 -1.323 -0.593 -1.323 -1.323 v 0 c 0 -0.731 0.593 -1.323 1.323 -1.323 h 0.424 c 0.731 0 1.323 0.593 1.323 1.323 v 0 C 32.109 52.621 31.516 53.213 30.785 53.213 z" style="stroke: none; stroke-width: 1; stroke-dasharray: none; stroke-linecap: butt; stroke-linejoin: miter; stroke-miterlimit: 10; fill: rgb(152,192,229); fill-rule: nonzero; opacity: 1;" transform=" matrix(1 0 0 1 0 0) " stroke-linecap="round" />
	<path d="M 59.771 61.213 h -23.88 c -0.663 0 -1.2 -0.537 -1.2 -1.2 v -0.246 c 0 -0.663 0.537 -1.2 1.2 -1.2 h 23.88 c 0.663 0 1.2 0.537 1.2 1.2 v 0.246 C 60.972 60.676 60.434 61.213 59.771 61.213 z" style="stroke: none; stroke-width: 1; stroke-dasharray: none; stroke-linecap: butt; stroke-linejoin: miter; stroke-miterlimit: 10; fill: rgb(180,183,191); fill-rule: nonzero; opacity: 1;" transform=" matrix(1 0 0 1 0 0) " stroke-linecap="round" />
	<path d="M 30.785 61.213 h -0.424 c -0.731 0 -1.323 -0.593 -1.323 -1.323 v 0 c 0 -0.731 0.593 -1.323 1.323 -1.323 h 0.424 c 0.731 0 1.323 0.593 1.323 1.323 v 0 C 32.109 60.621 31.516 61.213 30.785 61.213 z" style="stroke: none; stroke-width: 1; stroke-dasharray: none; stroke-linecap: butt; stroke-linejoin: miter; stroke-miterlimit: 10; fill: rgb(152,192,229); fill-rule: nonzero; opacity: 1;" transform=" matrix(1 0 0 1 0 0) " stroke-linecap="round" />
	<path d="M 59.771 69.213 h -23.88 c -0.663 0 -1.2 -0.537 -1.2 -1.2 v -0.246 c 0 -0.663 0.537 -1.2 1.2 -1.2 h 23.88 c 0.663 0 1.2 0.537 1.2 1.2 v 0.246 C 60.972 68.676 60.434 69.213 59.771 69.213 z" style="stroke: none; stroke-width: 1; stroke-dasharray: none; stroke-linecap: butt; stroke-linejoin: miter; stroke-miterlimit: 10; fill: rgb(180,183,191); fill-rule: nonzero; opacity: 1;" transform=" matrix(1 0 0 1 0 0) " stroke-linecap="round" />
	<path d="M 30.785 69.213 h -0.424 c -0.731 0 -1.323 -0.593 -1.323 -1.323 l 0 0 c 0 -0.731 0.593 -1.323 1.323 -1.323 h 0.424 c 0.731 0 1.323 0.593 1.323 1.323 l 0 0 C 32.109 68.621 31.516 69.213 30.785 69.213 z" style="stroke: none; stroke-width: 1; stroke-dasharray: none; stroke-linecap: butt; stroke-linejoin: miter; stroke-miterlimit: 10; fill: rgb(152,192,229); fill-rule: nonzero; opacity: 1;" transform=" matrix(1 0 0 1 0 0) " stroke-linecap="round" />
	<path d="M 60.497 80.31 H 29.503 c -0.262 0 -0.475 -0.213 -0.475 -0.475 v -4.944 c 0 -0.262 0.213 -0.475 0.475 -0.475 h 30.994 c 0.262 0 0.475 0.213 0.475 0.475 v 4.944 C 60.972 80.098 60.759 80.31 60.497 80.31 z" style="stroke: none; stroke-width: 1; stroke-dasharray: none; stroke-linecap: butt; stroke-linejoin: miter; stroke-miterlimit: 10; fill: rgb(152,192,229); fill-rule: nonzero; opacity: 1;" transform=" matrix(1 0 0 1 0 0) " stroke-linecap="round" />
</g>
</svg>